<?xml version="1.0" encoding="UTF-8" standalone="no"?>
<!-- Created with Inkscape (http://www.inkscape.org/) -->

<svg
   xmlns:dc="http://purl.org/dc/elements/1.1/"
   xmlns:cc="http://creativecommons.org/ns#"
   xmlns:rdf="http://www.w3.org/1999/02/22-rdf-syntax-ns#"
   xmlns:svg="http://www.w3.org/2000/svg"
   xmlns="http://www.w3.org/2000/svg"
   xmlns:sodipodi="http://sodipodi.sourceforge.net/DTD/sodipodi-0.dtd"
   xmlns:inkscape="http://www.inkscape.org/namespaces/inkscape"
   width="1.2500141in"
   height="1.2499938in"
   viewBox="0 0 31.750357 31.749844"
   version="1.1"
   id="svg8"
   inkscape:version="0.92.4 (5da689c313, 2019-01-14)"
   sodipodi:docname="1.25in Bezel Cover with 0.05in Pinhole.svg">
  <defs
     id="defs2" />
  <sodipodi:namedview
     id="base"
     pagecolor="#ffffff"
     bordercolor="#666666"
     borderopacity="1.0"
     inkscape:pageopacity="0.0"
     inkscape:pageshadow="2"
     inkscape:zoom="3.959798"
     inkscape:cx="227.05979"
     inkscape:cy="71.306836"
     inkscape:document-units="in"
     inkscape:current-layer="layer1"
     showgrid="false"
     units="in"
     inkscape:window-width="2560"
     inkscape:window-height="1057"
     inkscape:window-x="-8"
     inkscape:window-y="-8"
     inkscape:window-maximized="1"
     fit-margin-top="0"
     fit-margin-left="0"
     fit-margin-right="0"
     fit-margin-bottom="0" />
  <metadata
     id="metadata5">
    <rdf:RDF>
      <cc:Work
         rdf:about="">
        <dc:format>image/svg+xml</dc:format>
        <dc:type
           rdf:resource="http://purl.org/dc/dcmitype/StillImage" />
        <dc:title></dc:title>
      </cc:Work>
    </rdf:RDF>
  </metadata>
  <g
     inkscape:label="Layer 1"
     inkscape:groupmode="layer"
     id="layer1"
     transform="translate(393.5908,-148.72373)">
    <path
       style="opacity:1;fill:none;fill-opacity:1;stroke:#ff0000;stroke-width:0.19275589;stroke-miterlimit:4;stroke-dasharray:none;stroke-opacity:1"
       d="m -130.92773,32.810547 a 59.903625,59.903625 0 0 0 -59.9043,59.902344 59.903625,59.903625 0 0 0 59.9043,59.904299 59.903625,59.903625 0 0 0 59.904292,-59.904299 59.903625,59.903625 0 0 0 -59.904292,-59.902344 z m 0,58.558594 a 1.343622,1.343622 0 0 1 1.34375,1.34375 1.343622,1.343622 0 0 1 -1.34375,1.34375 1.343622,1.343622 0 0 1 -1.34375,-1.34375 1.343622,1.343622 0 0 1 1.34375,-1.34375 z"
       transform="matrix(0.26458334,0,0,0.26458334,-343.07432,140.06811)"
       id="path4526"
       inkscape:connector-curvature="0" />
  </g>
</svg>
